<?xml version="1.0" encoding="UTF-8" standalone="no"?>
<svg
   fill="#b0bac5"
   width="42px"
   height="42px"
   viewBox="0 0 24 24"
   version="1.1"
   preserveAspectRatio="xMidYMid meet"
   id="svg18"
   sodipodi:docname="cargoswap.svg"
   inkscape:version="1.2.2 (b0a8486541, 2022-12-01)"
   xmlns:inkscape="http://www.inkscape.org/namespaces/inkscape"
   xmlns:sodipodi="http://sodipodi.sourceforge.net/DTD/sodipodi-0.dtd"
   xmlns="http://www.w3.org/2000/svg"
   xmlns:svg="http://www.w3.org/2000/svg">
  <defs
     id="defs22" />
  <sodipodi:namedview
     id="namedview20"
     pagecolor="#505050"
     bordercolor="#ffffff"
     borderopacity="1"
     inkscape:showpageshadow="0"
     inkscape:pageopacity="0"
     inkscape:pagecheckerboard="1"
     inkscape:deskcolor="#505050"
     showgrid="false"
     inkscape:zoom="7.7882048"
     inkscape:cx="24.460066"
     inkscape:cy="33.448016"
     inkscape:window-width="964"
     inkscape:window-height="1400"
     inkscape:window-x="6308"
     inkscape:window-y="1052"
     inkscape:window-maximized="1"
     inkscape:current-layer="svg18" />
  <g
     id="SVGRepo_bgCarrier"
     stroke-width="0" />
  <g
     id="SVGRepo_iconCarrier"
     transform="scale(0.66668039,0.66671446)"
     style="stroke-width:1.4999308;stroke-dasharray:none">
    <title
       id="title3">container-line</title>
    <path
       d="M 32,30 H 4 A 2,2 0 0 1 2,28 V 8 A 2,2 0 0 1 4,6 h 28 a 2,2 0 0 1 2,2 v 20 a 2,2 0 0 1 -2,2 z M 4,8 V 28 H 32 V 8 Z"
       class="clr-i-outline clr-i-outline-path-1"
       id="path5"
       style="stroke-width:1.4999308;stroke-dasharray:none" />
    <path
       d="M 9,25.3 A 0.8,0.8 0 0 1 8.2,24.5 v -13 a 0.8,0.8 0 0 1 1.6,0 v 13 A 0.8,0.8 0 0 1 9,25.3 Z"
       class="clr-i-outline clr-i-outline-path-2"
       id="path7"
       style="stroke-width:1.4999308;stroke-dasharray:none" />
    <path
       d="m 14.92,25.3 a 0.8,0.8 0 0 1 -0.8,-0.8 v -13 a 0.8,0.8 0 0 1 1.6,0 v 13 a 0.8,0.8 0 0 1 -0.8,0.8 z"
       class="clr-i-outline clr-i-outline-path-3"
       id="path9"
       style="stroke-width:1.4999308;stroke-dasharray:none" />
    <path
       d="m 21,25.3 a 0.8,0.8 0 0 1 -0.8,-0.8 v -13 a 0.8,0.8 0 0 1 1.6,0 v 13 A 0.8,0.8 0 0 1 21,25.3 Z"
       class="clr-i-outline clr-i-outline-path-4"
       id="path11"
       style="stroke-width:1.4999308;stroke-dasharray:none" />
    <path
       d="m 27,25.3 a 0.8,0.8 0 0 1 -0.8,-0.8 v -13 a 0.8,0.8 0 0 1 1.6,0 v 13 A 0.8,0.8 0 0 1 27,25.3 Z"
       class="clr-i-outline clr-i-outline-path-5"
       id="path13"
       style="stroke-width:1.4999308;stroke-dasharray:none" />
    <rect
       x="0"
       y="0"
       width="36"
       height="36"
       fill-opacity="0"
       id="rect15"
       style="stroke-width:1.4999308;stroke-dasharray:none" />
  </g>
</svg>
