<?xml version="1.0" encoding="UTF-8" standalone="no"?>
<svg
   fill="#b0bac5"
   width="42px"
   height="42px"
   viewBox="0 0 256 256"
   id="Flat"
   version="1.1"
   sodipodi:docname="ccl.svg"
   inkscape:version="1.2.2 (b0a8486541, 2022-12-01)"
   xmlns:inkscape="http://www.inkscape.org/namespaces/inkscape"
   xmlns:sodipodi="http://sodipodi.sourceforge.net/DTD/sodipodi-0.dtd"
   xmlns="http://www.w3.org/2000/svg"
   xmlns:svg="http://www.w3.org/2000/svg">
  <defs
     id="defs19" />
  <sodipodi:namedview
     id="namedview17"
     pagecolor="#505050"
     bordercolor="#ffffff"
     borderopacity="1"
     inkscape:showpageshadow="0"
     inkscape:pageopacity="0"
     inkscape:pagecheckerboard="1"
     inkscape:deskcolor="#505050"
     showgrid="false"
     inkscape:zoom="43.790218"
     inkscape:cx="16.156576"
     inkscape:cy="15.037605"
     inkscape:window-width="1480"
     inkscape:window-height="1400"
     inkscape:window-x="5792"
     inkscape:window-y="1052"
     inkscape:window-maximized="1"
     inkscape:current-layer="Flat" />
  <g
     id="SVGRepo_bgCarrier"
     stroke-width="0" />
  <g
     id="SVGRepo_iconCarrier"
     transform="translate(0,-8.000096)"
     style="stroke-width:10.66666667;stroke-dasharray:none">
    <g
       id="g13"
       style="stroke-width:10.66666667;stroke-dasharray:none">
      <path
         d="M 188,24 H 68 A 32.03667,32.03667 0 0 0 36,56 v 128 a 32.03667,32.03667 0 0 0 32,32 h 11.99976 l -14.40015,19.2002 a 8.000192,8.000192 0 0 0 12.80078,9.5996 L 100.00024,216 h 55.99952 l 21.59985,28.7998 a 8.000192,8.000192 0 0 0 12.80078,-9.5996 L 176.00024,216 H 188 a 32.03667,32.03667 0 0 0 32,-32 V 56 A 32.03667,32.03667 0 0 0 188,24 Z M 52,120 V 80 h 68 v 40 z m 84,-40 h 68 v 40 H 136 Z M 68,40 h 120 a 16.01833,16.01833 0 0 1 16,16 v 8 H 52 V 56 A 16.01833,16.01833 0 0 1 68,40 Z M 188,200 H 68 A 16.01833,16.01833 0 0 1 52,184 v -48 h 152 v 48 a 16.01833,16.01833 0 0 1 -16,16 z"
         id="path7"
         style="stroke-width:10.66666667;stroke-dasharray:none" />
      <circle
         cx="84"
         cy="172"
         r="12"
         id="circle9"
         style="stroke-width:10.66666667;stroke-dasharray:none" />
      <circle
         cx="172"
         cy="172"
         r="12"
         id="circle11"
         style="stroke-width:10.66666667;stroke-dasharray:none" />
    </g>
  </g>
</svg>
