<?xml version="1.0" encoding="UTF-8" standalone="no"?>
<svg
   width="24px"
   height="24px"
   viewBox="0 0 24 24"
   fill="#16181c"
   stroke="#16181c"
   stroke-width="0.336"
   transform="rotate(0)matrix(1, 0, 0, 1, 0, 0)"
   version="1.1"
   id="svg45"
   sodipodi:docname="delete.svg"
   inkscape:version="1.2.2 (b0a8486541, 2022-12-01)"
   xmlns:inkscape="http://www.inkscape.org/namespaces/inkscape"
   xmlns:sodipodi="http://sodipodi.sourceforge.net/DTD/sodipodi-0.dtd"
   xmlns="http://www.w3.org/2000/svg"
   xmlns:svg="http://www.w3.org/2000/svg">
  <defs
     id="defs49" />
  <sodipodi:namedview
     id="namedview47"
     pagecolor="#505050"
     bordercolor="#ffffff"
     borderopacity="1"
     inkscape:showpageshadow="0"
     inkscape:pageopacity="0"
     inkscape:pagecheckerboard="1"
     inkscape:deskcolor="#505050"
     showgrid="false"
     inkscape:zoom="8.7560442"
     inkscape:cx="37.745355"
     inkscape:cy="35.004392"
     inkscape:window-width="1480"
     inkscape:window-height="1400"
     inkscape:window-x="5792"
     inkscape:window-y="1052"
     inkscape:window-maximized="1"
     inkscape:current-layer="svg45" />
  <g
     id="SVGRepo_bgCarrier"
     stroke-width="0"
     transform="translate(0.21298764,-0.61471558)" />
  <g
     id="SVGRepo_iconCarrier"
     transform="translate(0,-0.5)"
     style="stroke-width:0.65625;stroke-dasharray:none">
    <path
       d="m 18.87,6 h 1.007 L 18.889,22.015 A 1.051,1.051 0 0 1 17.84,23 H 6.158 A 1.052,1.052 0 0 1 5.11,22.016 V 22.015 L 4.123,6 H 5.126 L 6.108,21.953 A 0.05,0.05 0 0 0 6.158,22 H 17.841 Z M 9.5,19 A 0.5,0.5 0 0 0 10,18.5 v -10 a 0.5,0.5 0 0 0 -1,0 v 10 A 0.5,0.5 0 0 0 9.5,19 Z m 5,0 A 0.5,0.5 0 0 0 15,18.5 v -10 a 0.5,0.5 0 0 0 -1,0 v 10 A 0.5,0.5 0 0 0 14.5,19 Z M 5.064,5 H 3 V 4 H 8 V 3.25 A 1.251,1.251 0 0 1 9.25,2 h 5.5 A 1.251,1.251 0 0 1 16,3.25 V 4 h 5 V 5 Z M 9,4 h 6 V 3.25 A 0.25,0.25 0 0 0 14.75,3 H 9.25 A 0.25,0.25 0 0 0 9,3.25 Z"
       id="path40"
       style="stroke-width:0.65625;stroke-dasharray:none" />
  </g>
</svg>
