<?xml version="1.0" encoding="UTF-8" standalone="no"?>
<svg
   width="42px"
   height="42px"
   viewBox="0 0 24.00 24.00"
   fill="#16181c"
   stroke="#16181c"
   stroke-width="0.336"
   version="1.1"
   id="svg45"
   sodipodi:docname="zsounds.svg"
   inkscape:version="1.2.2 (b0a8486541, 2022-12-01)"
   xmlns:inkscape="http://www.inkscape.org/namespaces/inkscape"
   xmlns:sodipodi="http://sodipodi.sourceforge.net/DTD/sodipodi-0.dtd"
   xmlns="http://www.w3.org/2000/svg"
   xmlns:svg="http://www.w3.org/2000/svg">
  <defs
     id="defs49" />
  <sodipodi:namedview
     id="namedview47"
     pagecolor="#505050"
     bordercolor="#ffffff"
     borderopacity="1"
     inkscape:showpageshadow="0"
     inkscape:pageopacity="0"
     inkscape:pagecheckerboard="1"
     inkscape:deskcolor="#505050"
     showgrid="false"
     inkscape:zoom="10.187757"
     inkscape:cx="16.097753"
     inkscape:cy="18.011816"
     inkscape:window-width="1136"
     inkscape:window-height="1400"
     inkscape:window-x="6136"
     inkscape:window-y="1052"
     inkscape:window-maximized="1"
     inkscape:current-layer="svg45" />
  <g
     id="SVGRepo_bgCarrier"
     stroke-width="0" />
  <g
     id="SVGRepo_iconCarrier"
     transform="translate(-1.149854e-7,0.01199757)"><path
   d="M 11.193,4.452 5.67,9 H 2.376 A 1.376,1.376 0 0 0 1,10.376 v 3.248 A 1.376,1.376 0 0 0 2.376,15 h 3.293 l 5.524,4.548 A 0.51,0.51 0 0 0 12,19.134 V 4.866 A 0.51,0.51 0 0 0 11.193,4.452 Z M 11,18.088 6.028,14 H 2.375 A 0.375,0.375 0 0 1 2,13.625 v -3.25 A 0.375,0.375 0 0 1 2.375,10 H 6.028 L 11,5.911 Z M 15.47,5.344 a 9.975,9.975 0 0 1 2.53,6.643 9.848,9.848 0 0 1 -2.566,6.646 l -0.74,-0.672 A 8.872,8.872 0 0 0 17,11.987 8.984,8.984 0 0 0 14.723,6.009 Z M 18.93,1.411 A 15.817,15.817 0 0 1 23,11.989 15.945,15.945 0 0 1 18.965,22.565 L 18.23,21.915 A 14.966,14.966 0 0 0 22,11.988 14.852,14.852 0 0 0 18.2,2.064 Z"
   id="path40"
   style="stroke-width:0.65625;stroke-dasharray:none" />
&quot; /&gt; /
&gt;
  </g>
</svg>
